<svg width="300" height="250" viewBox="0 0 300 250" fill="none" xmlns="http://www.w3.org/2000/svg">
  <!-- Background Elements -->
  <circle cx="150" cy="125" r="120" fill="#F1F5F9"/>
  <circle cx="250" cy="50" r="30" fill="#E2E8F0" opacity="0.6"/>
  <circle cx="70" cy="200" r="15" fill="#E2E8F0" opacity="0.6"/>
  
  <!-- Central Broken Link Icon -->
  <g transform="translate(105, 75) scale(1.1)">
    <path d="M40.8333 16.6667H53.3333C63.8889 16.6667 72.5 25.2778 72.5 35.8333V48.3333C72.5 58.8889 63.8889 67.5 53.3333 67.5H40.8333" stroke="#94A3B8" stroke-width="4" stroke-linecap="round" stroke-linejoin="round"/>
    <path d="M53.3333 84.1667H40.8333C30.2778 84.1667 21.6667 75.5556 21.6667 65V52.5C21.6667 41.9444 30.2778 33.3333 40.8333 33.3333H53.3333" stroke="#94A3B8" stroke-width="4" stroke-linecap="round" stroke-linejoin="round"/>
    <!-- The "Break" -->
    <line x1="42" y1="45" x2="52" y2="55" stroke="#475569" stroke-width="4" stroke-linecap="round"/>
    <line x1="52" y1="45" x2="42" y2="55" stroke="#475569" stroke-width="4" stroke-linecap="round"/>
  </g>

  <!-- Magnifying Glass (Search) Icon -->
  <g transform="translate(160, 130)">
    <circle cx="15" cy="15" r="12" stroke="#3B82F6" stroke-width="3" fill="none"/>
    <line x1="25" y1="25" x2="32" y2="32" stroke="#3B82F6" stroke-width="3" stroke-linecap="round"/>
  </g>

  <!-- Abstract UI Element -->
  <rect x="50" y="50" width="80" height="50" rx="8" fill="#FFFFFF" stroke="#E2E8F0" stroke-width="2"/>
  <rect x="60" y="60" width="60" height="8" rx="4" fill="#E2E8F0"/>
  <rect x="60" y="75" width="40" height="8" rx="4" fill="#E2E8F0"/>

  <!-- "404" Text -->
  <text x="150" y="200" font-family="-apple-system, BlinkMacSystemFont, 'Segoe UI', Roboto, sans-serif" font-size="28" font-weight="bold" fill="#0F172A" text-anchor="middle">404</text>
</svg>